<svg width="32" height="32" viewBox="0 0 32 32" fill="none" xmlns="http://www.w3.org/2000/svg">
<path fill-rule="evenodd" clip-rule="evenodd" d="M8 25C5.79086 25 4 23.2091 4 21C4 19.0643 5.37492 17.4498 7.20142 17.0797C7.0711 16.7458 7 16.3812 7 16C7 14.3431 8.34315 13 10 13C10.5459 13 11.0577 13.1458 11.4987 13.4006C12.5303 10.8218 15.0524 9 18 9C21.866 9 25 12.134 25 16C25 16.3763 24.9703 16.7457 24.9131 17.1059C26.6821 17.5177 28 19.1049 28 21C28 22.8636 26.7256 24.4295 25.0008 24.8738L25 25H8Z" fill="#FE2882"/>
</svg>
