<svg width="32" height="32" viewBox="0 0 32 32" fill="none" xmlns="http://www.w3.org/2000/svg">
<path d="M26.5864 19.0899C27.0892 18.8613 27.6821 19.0837 27.9106 19.5864C28.1228 20.0533 27.9463 20.5978 27.5174 20.8562L27.414 20.9106L16.414 25.9106C16.1887 26.013 15.9348 26.0277 15.7013 25.9545L15.5864 25.9106L4.58644 20.9106C4.08366 20.6821 3.86134 20.0892 4.08988 19.5864C4.30209 19.1196 4.82843 18.8945 5.3051 19.0477L5.41405 19.0899L15.9992 23.9012L26.5864 19.0899Z" fill="#FE2882"/>
<path fill-rule="evenodd" clip-rule="evenodd" d="M16.4187 7.1936L27.0324 12.0922C27.5339 12.3237 27.7528 12.9178 27.5213 13.4193C27.4217 13.6352 27.2483 13.8085 27.0324 13.9082L16.4187 18.8068C16.1528 18.9295 15.8465 18.9295 15.5806 18.8068L4.96693 13.9082C4.46547 13.6767 4.24658 13.0826 4.47802 12.5811C4.57768 12.3652 4.75101 12.1919 4.96693 12.0922L15.5806 7.1936C15.8465 7.07088 16.1528 7.07088 16.4187 7.1936Z" fill="#FE2882"/>
</svg>
