<svg xmlns="http://www.w3.org/2000/svg" preserveAspectRatio="none" viewBox="0 0 1440 320">
    <defs>
        <filter id="c" width="120" height="120">
            <feOffset in="SourceAlpha" dy="20" />
            <feGaussianBlur stdDeviation="8" />
            <feBlend in="SourceGraphic" in2="blurOut" />
        </filter>
    </defs>

<path fill="#fffbeb" filter="url(#c)"
    d="M0,288L10,277.3C20,267,40,245,60,224C80,203,100,181,120,181.3C140,181,160,203,180,208C200,213,220,203,240,165.3C260,128,280,64,300,42.7C320,21,340,43,360,69.3C380,96,400,128,420,122.7C440,117,460,75,480,53.3C500,32,520,32,540,37.3C560,43,580,53,600,69.3C620,85,640,107,660,106.7C680,107,700,85,720,96C740,107,760,149,780,154.7C800,160,820,128,840,106.7C860,85,880,75,900,101.3C920,128,940,192,960,197.3C980,203,1000,149,1020,112C1040,75,1060,53,1080,85.3C1100,117,1120,203,1140,218.7C1160,235,1180,181,1200,144C1220,107,1240,85,1260,85.3C1280,85,1300,107,1320,138.7C1340,171,1360,213,1380,240C1400,267,1420,277,1430,282.7L1440,288L1440,0L1430,0C1420,0,1400,0,1380,0C1360,0,1340,0,1320,0C1300,0,1280,0,1260,0C1240,0,1220,0,1200,0C1180,0,1160,0,1140,0C1120,0,1100,0,1080,0C1060,0,1040,0,1020,0C1000,0,980,0,960,0C940,0,920,0,900,0C880,0,860,0,840,0C820,0,800,0,780,0C760,0,740,0,720,0C700,0,680,0,660,0C640,0,620,0,600,0C580,0,560,0,540,0C520,0,500,0,480,0C460,0,440,0,420,0C400,0,380,0,360,0C340,0,320,0,300,0C280,0,260,0,240,0C220,0,200,0,180,0C160,0,140,0,120,0C100,0,80,0,60,0C40,0,20,0,10,0L0,0Z">
    </path>
</svg>